<svg width="73" height="73" viewBox="0 0 73 73" fill="none" xmlns="http://www.w3.org/2000/svg">
<path d="M72.0913 55.8825V72.5817H54.0913V63.5817H45.0913V54.5817H36.0913V47.3044C34.3569 48.2185 32.5405 48.9099 30.642 49.3786C28.7436 49.8474 26.81 50.0817 24.8413 50.0817C22.5678 50.0817 20.3764 49.7888 18.267 49.2028C16.1577 48.6169 14.1889 47.7849 12.3608 46.7067C10.5327 45.6286 8.85688 44.3396 7.33344 42.8396C5.83344 41.3161 4.54438 39.6403 3.46626 37.8122C2.38813 35.9841 1.5561 34.0153 0.970161 31.906C0.384224 29.7966 0.0912552 27.6052 0.0912552 25.3317C0.0912552 23.0583 0.384224 20.8669 0.970161 18.7575C1.5561 16.6482 2.38813 14.6794 3.46626 12.8513C4.54438 11.0232 5.83344 9.35909 7.33344 7.85909C8.85688 6.33566 10.5327 5.03487 12.3608 3.95675C14.1889 2.87862 16.1577 2.04659 18.267 1.46066C20.3764 0.874718 22.5678 0.581749 24.8413 0.581749C27.1147 0.581749 29.3061 0.874718 31.4155 1.46066C33.5248 2.04659 35.4936 2.87862 37.3217 3.95675C39.1498 5.03487 40.8139 6.33566 42.3139 7.85909C43.8373 9.35909 45.1381 11.0232 46.2163 12.8513C47.2944 14.6794 48.1264 16.6482 48.7123 18.7575C49.2983 20.8669 49.5913 23.0583 49.5913 25.3317C49.5913 26.5271 49.4975 27.7107 49.31 28.8825C49.1225 30.0544 48.853 31.2028 48.5014 32.3278L72.0913 55.8825ZM67.5913 57.781L43.3334 33.5232C43.8491 32.1872 44.2709 30.8513 44.5991 29.5153C44.9272 28.156 45.0913 26.7614 45.0913 25.3317C45.0913 22.5427 44.5522 19.9177 43.4741 17.4567C42.4194 14.9958 40.978 12.8513 39.1498 11.0232C37.3217 9.19503 35.1772 7.75362 32.7163 6.69894C30.2553 5.62081 27.6303 5.08175 24.8413 5.08175C22.0522 5.08175 19.4272 5.62081 16.9663 6.69894C14.5053 7.75362 12.3608 9.19503 10.5327 11.0232C8.70454 12.8513 7.25141 14.9958 6.17329 17.4567C5.1186 19.9177 4.59126 22.5427 4.59126 25.3317C4.59126 28.1208 5.1186 30.7458 6.17329 33.2067C7.25141 35.6677 8.70454 37.8122 10.5327 39.6403C12.3608 41.4685 14.5053 42.9216 16.9663 43.9997C19.4272 45.0544 22.0522 45.5817 24.8413 45.5817C27.1147 45.5817 29.3413 45.195 31.5209 44.4216C33.7241 43.6482 35.7045 42.5349 37.4623 41.0817H40.5913V50.0817H49.5913V59.0817H58.5913V68.0817H67.5913V57.781ZM18.0913 14.0817C18.7241 14.0817 19.31 14.1989 19.8491 14.4333C20.3881 14.6677 20.8569 14.9958 21.2553 15.4177C21.6772 15.8161 22.0053 16.2849 22.2397 16.8239C22.4741 17.363 22.5913 17.9489 22.5913 18.5817C22.5913 19.2146 22.4741 19.8005 22.2397 20.3396C22.0053 20.8786 21.6772 21.3591 21.2553 21.781C20.8569 22.1794 20.3881 22.4958 19.8491 22.7302C19.31 22.9646 18.7241 23.0817 18.0913 23.0817C17.4584 23.0817 16.8725 22.9646 16.3334 22.7302C15.7944 22.4958 15.3139 22.1794 14.892 21.781C14.4936 21.3591 14.1772 20.8786 13.9428 20.3396C13.7084 19.8005 13.5913 19.2146 13.5913 18.5817C13.5913 17.9489 13.7084 17.363 13.9428 16.8239C14.1772 16.2849 14.4936 15.8161 14.892 15.4177C15.3139 14.9958 15.7944 14.6677 16.3334 14.4333C16.8725 14.1989 17.4584 14.0817 18.0913 14.0817Z" fill="#4C051D"/>
</svg>
