<svg width="68" height="69" viewBox="0 0 68 69" fill="none" xmlns="http://www.w3.org/2000/svg">
<path d="M33.8412 68.0818C30.724 68.0818 27.724 67.6833 24.8412 66.8864C21.9818 66.0896 19.2983 64.9646 16.7904 63.5114C14.2826 62.0349 11.9975 60.2771 9.93497 58.238C7.89591 56.1755 6.1381 53.8904 4.66154 51.3825C3.20841 48.8747 2.08341 46.1911 1.28654 43.3318C0.489662 40.4489 0.0912247 37.4489 0.0912247 34.3318C0.0912247 31.2146 0.489662 28.2263 1.28654 25.3669C2.08341 22.4841 3.20841 19.7888 4.66154 17.281C6.1381 14.7732 7.89591 12.4997 9.93497 10.4607C11.9975 8.39817 14.2826 6.64035 16.7904 5.18723C19.2983 3.71067 21.9818 2.57395 24.8412 1.77707C27.724 0.980198 30.724 0.58176 33.8412 0.58176C36.9584 0.58176 39.9467 0.980198 42.8061 1.77707C45.6889 2.57395 48.3842 3.71067 50.892 5.18723C53.3998 6.64035 55.6733 8.39817 57.7123 10.4607C59.7748 12.4997 61.5326 14.7732 62.9858 17.281C64.4623 19.7888 65.599 22.4841 66.3959 25.3669C67.1928 28.2263 67.5912 31.2146 67.5912 34.3318C67.5912 37.4489 67.1928 40.4489 66.3959 43.3318C65.599 46.1911 64.4623 48.8747 62.9858 51.3825C61.5326 53.8904 59.7748 56.1755 57.7123 58.238C55.6733 60.2771 53.3998 62.0349 50.892 63.5114C48.3842 64.9646 45.6889 66.0896 42.8061 66.8864C39.9467 67.6833 36.9584 68.0818 33.8412 68.0818ZM33.8412 5.08176C31.1459 5.08176 28.5561 5.43332 26.0717 6.13645C23.5873 6.83957 21.2553 7.82395 19.0756 9.08957C16.9193 10.3552 14.9506 11.8786 13.1693 13.6599C11.3881 15.4411 9.86466 17.4216 8.59904 19.6013C7.33341 21.7575 6.34904 24.0896 5.64591 26.5974C4.94279 29.0818 4.59122 31.6599 4.59122 34.3318C4.59122 37.0036 4.94279 39.5935 5.64591 42.1013C6.34904 44.5857 7.33341 46.9177 8.59904 49.0974C9.86466 51.2536 11.3881 53.2224 13.1693 55.0036C14.9506 56.7849 16.9193 58.3083 19.0756 59.5739C21.2553 60.8396 23.5873 61.8239 26.0717 62.5271C28.5561 63.2302 31.1459 63.5818 33.8412 63.5818C36.5131 63.5818 39.0912 63.2302 41.5756 62.5271C44.0834 61.8239 46.4154 60.8396 48.5717 59.5739C50.7514 58.3083 52.7318 56.7849 54.5131 55.0036C56.2943 53.2224 57.8178 51.2536 59.0834 49.0974C60.349 46.9177 61.3334 44.5857 62.0365 42.1013C62.7397 39.6169 63.0912 37.0271 63.0912 34.3318C63.0912 31.6599 62.7397 29.0818 62.0365 26.5974C61.3334 24.0896 60.349 21.7575 59.0834 19.6013C57.8178 17.4216 56.2943 15.4411 54.5131 13.6599C52.7318 11.8786 50.7514 10.3552 48.5717 9.08957C46.4154 7.82395 44.0834 6.83957 41.5756 6.13645C39.0912 5.43332 36.5131 5.08176 33.8412 5.08176ZM31.5912 27.5818H36.0912V50.0818H31.5912V27.5818ZM31.5912 18.5818H36.0912V23.0818H31.5912V18.5818Z" fill="#4C051D"/>
</svg>
