<svg width="73" height="60" viewBox="0 0 73 60" fill="none" xmlns="http://www.w3.org/2000/svg">
<path d="M65.517 16.156C67.6498 18.2888 69.2787 20.7263 70.4037 23.4685C71.5287 26.1872 72.0912 29.0583 72.0912 32.0818C72.0912 35.1052 71.5287 37.9763 70.4037 40.695C69.2787 43.4138 67.6498 45.8396 65.517 47.9724C63.3842 50.1052 60.9467 51.7458 58.2045 52.8943C55.4857 54.0193 52.6146 54.5818 49.5912 54.5818C47.1068 54.5818 44.7162 54.2068 42.4193 53.4568C40.1459 52.6833 38.0365 51.5583 36.0912 50.0818L27.0912 59.0818L0.0911942 32.0818L31.5912 0.581753H58.5912V11.445C59.8568 12.0075 61.0639 12.6872 62.2123 13.4841C63.3842 14.2575 64.4857 15.1482 65.517 16.156ZM27.0912 52.7185L54.0912 25.7185V14.6443C53.3646 14.4568 52.6264 14.3161 51.8764 14.2224C51.1264 14.1286 50.3646 14.0818 49.5912 14.0818H47.3412C46.7318 14.0818 46.2045 13.8591 45.7592 13.4138C45.3139 12.9685 45.0912 12.4411 45.0912 11.8318C45.0912 11.2224 45.3139 10.695 45.7592 10.2497C46.2045 9.80441 46.7318 9.58175 47.3412 9.58175H49.5912C51.1615 9.58175 52.6615 9.7341 54.0912 10.0388V5.08175H33.4545L6.45448 32.0818L27.0912 52.7185ZM49.5912 50.0818C52.0756 50.0818 54.4076 49.613 56.5873 48.6755C58.767 47.7146 60.6654 46.4255 62.2826 44.8083C63.9232 43.1677 65.2123 41.2575 66.1498 39.0778C67.1107 36.8982 67.5912 34.5661 67.5912 32.0818C67.5912 30.4177 67.3685 28.8239 66.9232 27.3005C66.5014 25.7536 65.892 24.3122 65.0951 22.9763C64.3217 21.6403 63.3724 20.4216 62.2474 19.32C61.1459 18.2185 59.9271 17.281 58.5912 16.5075V27.5818L39.3256 46.8474C40.8256 47.9021 42.4428 48.7107 44.1771 49.2732C45.9115 49.8122 47.7162 50.0818 49.5912 50.0818Z" fill="#4C051D"/>
</svg>
